<svg width="36" height="36" viewBox="0 0 36 36" fill="none" xmlns="http://www.w3.org/2000/svg">
<ellipse cx="17.9732" cy="18.2614" rx="17.8887" ry="17.516" fill="#54423D"/>
<path d="M10.9969 9.168C11.1825 8.84991 11.4506 8.5855 11.7741 8.40155C12.0977 8.21761 12.4651 8.12066 12.8392 8.12054H23.7361C24.1103 8.12066 24.4777 8.21761 24.8012 8.40155C25.1248 8.5855 25.3929 8.84991 25.5785 9.168L26.7915 11.2463C27.4792 12.4247 26.8435 13.8473 25.6347 14.2463C25.64 14.3315 25.639 14.4167 25.6326 14.503L24.7231 26.9726C24.685 27.497 24.4454 27.9877 24.0525 28.3459C23.6597 28.7042 23.1428 28.9034 22.6059 28.9034H13.9684C13.4315 28.9034 12.9146 28.7042 12.5218 28.3459C12.1289 27.9877 11.8893 27.497 11.8512 26.9726L10.9417 14.503C10.9353 14.4175 10.9342 14.3318 10.9385 14.2463C9.73082 13.8473 9.09513 12.4247 9.78176 11.2463L10.9958 9.168H10.9969ZM13.06 14.3554L13.2871 17.4728H23.2883L23.5154 14.3554H13.06ZM13.7423 23.7077L13.9695 26.8251H22.6059L22.833 23.7077H13.7423ZM24.9492 12.2771L23.7361 10.1988H12.8392L11.6262 12.2771H24.9492Z" fill="#E3E3E3"/>
</svg>
