<svg width="57" height="57" viewBox="0 0 57 57" fill="none" xmlns="http://www.w3.org/2000/svg">
<circle cx="28.5" cy="28.5" r="28.5" fill="#54423D"/>
<path d="M47.2581 28.3424C47.2581 17.7665 38.7375 9.19354 28.2282 9.19354C17.7142 9.19592 9.1936 17.7665 9.1936 28.3447C9.1936 37.9001 16.1538 45.8213 25.2501 47.2581V33.8777H20.4212V28.3447H25.2548V24.1225C25.2548 19.3246 28.0974 16.6747 32.4434 16.6747C34.5271 16.6747 36.7037 17.0481 36.7037 17.0481V21.758H34.3035C31.9414 21.758 31.204 23.2352 31.204 24.7505V28.3424H36.4801L35.638 33.8753H31.2017V47.2557C40.2979 45.8189 47.2581 37.8977 47.2581 28.3424Z" fill="#E3E3E3"/>
</svg>
