<svg width="37" height="36" viewBox="0 0 37 36" fill="none" xmlns="http://www.w3.org/2000/svg">
<ellipse cx="18.835" cy="18.2614" rx="17.8887" ry="17.516" fill="#54423D"/>
<path d="M18.8364 6.89136C12.4201 6.88875 7.22314 12.1132 7.22314 18.5615C7.22314 23.6607 10.4741 27.9952 15.0016 29.5871C15.6114 29.7411 15.518 29.3053 15.518 29.0078V26.9853C11.9971 27.4002 11.8544 25.0568 11.6183 24.6654C11.1409 23.846 10.0123 23.6372 10.3496 23.2458C11.1513 22.8308 11.9686 23.3501 12.9156 24.7567C13.6006 25.7771 14.9368 25.6048 15.614 25.4352C15.7619 24.822 16.0784 24.2739 16.5143 23.8486C12.8663 23.191 11.3459 20.9519 11.3459 18.2901C11.3459 16.9984 11.7688 15.811 12.5991 14.8533C12.0698 13.2745 12.6484 11.9227 12.7262 11.7217C14.2337 11.586 15.8008 12.8073 15.9227 12.9039C16.7789 12.6716 17.7571 12.549 18.852 12.549C19.9521 12.549 20.9328 12.6769 21.7968 12.9117C22.09 12.6873 23.5429 11.6382 24.944 11.7661C25.0193 11.967 25.5849 13.2875 25.0867 14.8454C25.9273 15.8058 26.3555 17.0036 26.3555 18.2979C26.3555 20.965 24.8247 23.2066 21.1663 23.8538C21.4797 24.1637 21.7285 24.5334 21.8982 24.9411C22.0679 25.3488 22.1552 25.7865 22.1549 26.2285V29.1643C22.1756 29.3992 22.1549 29.6315 22.544 29.6315C27.139 28.0735 30.4471 23.7077 30.4471 18.5641C30.4471 12.1132 25.2476 6.89136 18.8364 6.89136Z" fill="#E3E3E3"/>
</svg>
