<svg width="53" height="35" viewBox="0 0 53 35" fill="none" xmlns="http://www.w3.org/2000/svg">
<path d="M52.4035 31.9942C52.4035 33.6006 51.1013 34.9028 49.4949 34.9028H2.95788C1.35152 34.9028 0.0493164 33.6006 0.0493164 31.9942C0.0493164 30.3879 1.35152 29.0856 2.95788 29.0856H49.4949C51.1013 29.0856 52.4035 30.3879 52.4035 31.9942ZM52.4035 17.4514C52.4035 19.0577 51.1013 20.36 49.4949 20.36H2.95788C1.35153 20.36 0.0493164 19.0577 0.0493164 17.4514C0.0493164 15.845 1.35152 14.5428 2.95788 14.5428H49.4949C51.1013 14.5428 52.4035 15.845 52.4035 17.4514ZM52.4035 2.90856C52.4035 4.51492 51.1013 5.81713 49.4949 5.81713H2.95788C1.35153 5.81713 0.0493164 4.51492 0.0493164 2.90856C0.0493164 1.30221 1.35152 0 2.95788 0H49.4949C51.1013 0 52.4035 1.30221 52.4035 2.90856Z" fill="#54423D"/>
</svg>
