<svg width="57" height="57" viewBox="0 0 57 57" fill="none" xmlns="http://www.w3.org/2000/svg">
<circle cx="28.5" cy="28.5" r="28.5" fill="#54423D"/>
<path d="M28.2207 21.879C24.726 21.879 21.8741 24.731 21.8741 28.2258C21.8741 31.7206 24.726 34.5726 28.2207 34.5726C31.7155 34.5726 34.5674 31.7206 34.5674 28.2258C34.5674 24.731 31.7155 21.879 28.2207 21.879ZM47.256 28.2258C47.256 25.5976 47.2798 22.9932 47.1322 20.3697C46.9846 17.3225 46.2895 14.6181 44.0612 12.3898C41.8282 10.1567 39.1286 9.46635 36.0815 9.31875C33.4533 9.17115 30.8489 9.19496 28.2255 9.19496C25.5973 9.19496 22.993 9.17115 20.3695 9.31875C17.3224 9.46635 14.618 10.1615 12.3898 12.3898C10.1568 14.6228 9.46641 17.3225 9.31881 20.3697C9.17121 22.9979 9.19502 25.6023 9.19502 28.2258C9.19502 30.8493 9.17121 33.4584 9.31881 36.0819C9.46641 39.1291 10.1615 41.8335 12.3898 44.0618C14.6228 46.2949 17.3224 46.9852 20.3695 47.1328C22.9977 47.2804 25.6021 47.2566 28.2255 47.2566C30.8537 47.2566 33.4581 47.2804 36.0815 47.1328C39.1286 46.9852 41.833 46.2901 44.0612 44.0618C46.2942 41.8288 46.9846 39.1291 47.1322 36.0819C47.2846 33.4584 47.256 30.854 47.256 28.2258ZM28.2207 37.9912C22.8168 37.9912 18.4555 33.6299 18.4555 28.2258C18.4555 22.8217 22.8168 18.4604 28.2207 18.4604C33.6247 18.4604 37.986 22.8217 37.986 28.2258C37.986 33.6299 33.6247 37.9912 28.2207 37.9912ZM38.3859 20.3411C37.1242 20.3411 36.1053 19.3222 36.1053 18.0605C36.1053 16.7987 37.1242 15.7798 38.3859 15.7798C39.6476 15.7798 40.6665 16.7987 40.6665 18.0605C40.6669 18.3601 40.6081 18.6568 40.4937 18.9337C40.3792 19.2105 40.2112 19.4621 39.9994 19.674C39.7875 19.8858 39.536 20.0538 39.2591 20.1683C38.9822 20.2828 38.6855 20.3415 38.3859 20.3411Z" fill="#E3E3E3"/>
</svg>
