<svg width="37" height="36" viewBox="0 0 37 36" fill="none" xmlns="http://www.w3.org/2000/svg">
<ellipse cx="18.6963" cy="18.2614" rx="17.8887" ry="17.516" fill="#54423D"/>
<path d="M18.6967 6.27673C11.9368 6.27673 6.45703 11.6424 6.45703 18.2614C6.45703 24.8804 11.9368 30.246 18.6967 30.246C25.4565 30.246 30.9363 24.8804 30.9363 18.2614C30.9363 11.6424 25.4565 6.27673 18.6967 6.27673ZM15.7005 23.2288H13.222V15.4188H15.7005V23.2288ZM14.4459 14.46C13.6631 14.46 13.157 13.9169 13.157 13.2453C13.157 12.5599 13.6784 12.0331 14.4778 12.0331C15.2772 12.0331 15.7668 12.5599 15.7821 13.2453C15.7821 13.9169 15.2772 14.46 14.4459 14.46ZM24.7527 23.2288H22.2742V18.9006C22.2742 17.8931 21.9147 17.209 21.0184 17.209C20.3337 17.209 19.927 17.6721 19.7472 18.1178C19.6809 18.2764 19.6644 18.5011 19.6644 18.7245V23.2275H17.1846V17.9093C17.1846 16.9343 17.1527 16.1191 17.1195 15.4175H19.273L19.3864 16.5024H19.4361C19.7625 15.993 20.5619 15.2415 21.8994 15.2415C23.5301 15.2415 24.7527 16.3114 24.7527 18.6109V23.2288Z" fill="#E3E3E3"/>
</svg>
