<svg width="57" height="57" viewBox="0 0 57 57" fill="none" xmlns="http://www.w3.org/2000/svg">
<circle cx="28.5" cy="28.5" r="28.5" fill="#54423D"/>
<path d="M47.2581 16.5335C46.7372 17.3139 46.1456 18.0447 45.4908 18.7168C44.8328 19.3931 44.1178 20.0117 43.3538 20.5656C43.3783 20.9068 43.391 21.2486 43.3918 21.5906C43.3918 23.1513 43.226 24.6929 42.8916 26.2182C42.5583 27.738 42.0719 29.2201 41.4397 30.6418C40.564 32.6449 39.4068 34.5126 38.003 36.1884C36.6576 37.7909 35.0816 39.1846 33.3265 40.3238C31.5652 41.4604 29.6459 42.3307 27.6304 42.9068C25.5274 43.5087 23.3497 43.8099 21.1622 43.8013C19.0526 43.804 16.9535 43.5064 14.9278 42.9176C12.8975 42.3266 10.9654 41.4398 9.1936 40.2858C11.2387 40.533 13.3124 40.3745 15.2962 39.8193C17.2799 39.2641 19.1347 38.3232 20.7543 37.0503C19.5427 37.0333 18.352 36.7316 17.2784 36.1696C16.2049 35.6076 15.2786 34.8009 14.5743 33.8148C14.0939 33.1521 13.7205 32.4181 13.4677 31.6397C13.7151 31.6777 13.9598 31.7104 14.2018 31.7348C15.135 31.8262 16.0771 31.7441 16.9805 31.4929C16.0894 31.3171 15.2368 30.9838 14.4628 30.5086C13.7128 30.0477 13.0441 29.4662 12.4835 28.7876C11.3326 27.3941 10.7072 25.641 10.7162 23.8337V23.744C11.8092 24.3612 12.9919 24.6902 14.2671 24.7282C13.2038 24.004 12.3308 23.034 11.7222 21.9006C11.4241 21.3416 11.1932 20.7493 11.0343 20.136C10.7106 18.8383 10.7171 17.4801 11.0533 16.1855C11.2246 15.5248 11.4911 14.8967 11.8527 14.3013C12.8424 15.5275 13.9462 16.6287 15.1589 17.5993C17.5689 19.5321 20.3537 20.944 23.3373 21.7456C24.8432 22.1492 26.3884 22.3889 27.9458 22.4607C27.8707 22.1706 27.818 21.8752 27.7881 21.577C27.7575 21.278 27.7421 20.9777 27.7419 20.6771C27.7419 19.5977 27.9458 18.5835 28.3564 17.6374C29.1524 15.7678 30.6412 14.2789 32.5108 13.4829C33.4703 13.0722 34.5042 12.864 35.5478 12.8712C36.6183 12.8659 37.6782 13.0829 38.6605 13.5083C39.6429 13.9337 40.5262 14.5583 41.2548 15.3426C42.9991 14.9983 44.6712 14.3563 46.1977 13.4448C45.6318 15.2566 44.4128 16.7935 42.7774 17.757C44.3238 17.5773 45.8343 17.1657 47.2581 16.5362V16.5335Z" fill="#E3E3E3"/>
</svg>
