<svg width="57" height="57" viewBox="0 0 57 57" fill="none" xmlns="http://www.w3.org/2000/svg">
<circle cx="28.5" cy="28.5" r="28.5" fill="#54423D"/>
<path d="M44.4114 18.2891C38.7174 9.19324 27.0922 6.48906 18.0767 12.1433C9.2985 17.7975 6.45151 30.0892 12.1455 39.1851L12.62 39.9226L10.722 47.2977L17.8395 45.331L18.5512 45.8227C21.6355 47.5435 24.957 48.5269 28.2785 48.5269C31.8372 48.5269 35.3959 47.5435 38.4802 45.5769C47.2584 39.6768 49.8682 27.6309 44.4114 18.2891ZM39.4292 37.2185C38.4802 38.6935 37.2939 39.6768 35.6332 39.9226C34.6842 39.9226 33.4979 40.4143 28.753 38.4476C24.7197 36.481 21.3982 33.2851 19.0257 29.5976C17.6022 27.8767 16.8905 25.6642 16.6532 23.4517C16.6532 21.485 17.365 19.7642 18.5512 18.535C19.0257 18.0433 19.5002 17.7975 19.9747 17.7975H21.161C21.6355 17.7975 22.11 17.7975 22.3472 18.7808C22.8217 20.01 24.008 22.96 24.008 23.2059C24.2452 23.4517 24.2452 23.9434 24.008 24.1892C24.2452 24.6809 24.008 25.1725 23.7707 25.4184C23.5335 25.6642 23.2962 26.1559 23.059 26.4017C22.5845 26.6475 22.3472 27.1392 22.5845 27.6309C23.5335 29.1059 24.7197 30.5809 25.906 31.8101C27.3295 33.0393 28.753 34.0226 30.4137 34.7601C30.8882 35.0059 31.3627 35.0059 31.5999 34.5143C31.8372 34.0226 33.0234 32.7934 33.4979 32.3018C33.9724 31.8101 34.2097 31.8101 34.6842 32.0559L38.4802 34.0226C38.9547 34.2684 39.4292 34.5143 39.6664 34.7601C39.9037 35.4976 39.9037 36.481 39.4292 37.2185Z" fill="#E3E3E3"/>
</svg>
