<svg width="36" height="36" viewBox="0 0 36 36" fill="none" xmlns="http://www.w3.org/2000/svg">
<ellipse cx="18.1114" cy="17.516" rx="17.8887" ry="17.516" fill="#54423D"/>
<path d="M20.4167 17.6202L17.6265 16.3454C17.383 16.2347 17.183 16.3588 17.183 16.6228V19.0239C17.183 19.2879 17.383 19.412 17.6265 19.3013L20.4154 18.0265C20.6602 17.9146 20.6602 17.7321 20.4167 17.6202ZM18.4253 6.146C11.8388 6.146 6.49951 11.374 6.49951 17.8233C6.49951 24.2726 11.8388 29.5007 18.4253 29.5007C25.0118 29.5007 30.3511 24.2726 30.3511 17.8233C30.3511 11.374 25.0118 6.146 18.4253 6.146ZM18.4253 22.5673C12.3208 22.5673 12.214 22.0284 12.214 17.8233C12.214 13.6183 12.3208 13.0794 18.4253 13.0794C24.5298 13.0794 24.6367 13.6183 24.6367 17.8233C24.6367 22.0284 24.5298 22.5673 18.4253 22.5673Z" fill="#E3E3E3"/>
</svg>
